<svg width="512" height="512" viewBox="0 0 512 512" fill="none" xmlns="http://www.w3.org/2000/svg">
  <rect width="512" height="512" rx="128" fill="#07101C"/>
  <rect x="88" y="122" width="336" height="28" rx="14" fill="url(#paint0_linear)"/>
  <rect x="238" y="132" width="36" height="166" rx="18" fill="url(#paint1_linear)"/>
  <rect x="192" y="150" width="128" height="140" rx="28" fill="url(#paint2_linear)"/>
  <rect x="212" y="170" width="88" height="100" rx="20" stroke="white" stroke-opacity="0.35" stroke-width="4"/>
  <path d="M248 290H264L276 330H236L248 290Z" fill="url(#paint3_linear)"/>
  <ellipse cx="256" cy="370" rx="114" ry="36" fill="url(#paint4_radial)"/>
  <ellipse cx="256" cy="406" rx="164" ry="28" stroke="#36DBFF" stroke-opacity="0.55" stroke-width="8"/>
  <path d="M212 370C212 333.549 241.549 304 278 304H300C320.987 304 338 321.013 338 342V356H312V344C312 333.507 303.493 325 293 325H278C253.147 325 233 345.147 233 370V372H212V370Z" fill="#42E5FF"/>
  <defs>
    <linearGradient id="paint0_linear" x1="88" y1="136" x2="424" y2="136" gradientUnits="userSpaceOnUse">
      <stop stop-color="#DDE8F7" stop-opacity="0.12"/>
      <stop offset="0.52" stop-color="#F3FAFF"/>
      <stop offset="1" stop-color="#1D6FFF" stop-opacity="0.38"/>
    </linearGradient>
    <linearGradient id="paint1_linear" x1="256" y1="132" x2="256" y2="298" gradientUnits="userSpaceOnUse">
      <stop stop-color="#4D6C96"/>
      <stop offset="0.52" stop-color="#E8F5FF"/>
      <stop offset="1" stop-color="#204F8B"/>
    </linearGradient>
    <linearGradient id="paint2_linear" x1="192" y1="150" x2="320" y2="290" gradientUnits="userSpaceOnUse">
      <stop stop-color="#72F3FF"/>
      <stop offset="0.58" stop-color="#153E69"/>
      <stop offset="1" stop-color="#07101C"/>
    </linearGradient>
    <linearGradient id="paint3_linear" x1="256" y1="290" x2="256" y2="330" gradientUnits="userSpaceOnUse">
      <stop stop-color="#F4FBFF"/>
      <stop offset="1" stop-color="#41DFFF"/>
    </linearGradient>
    <radialGradient id="paint4_radial" cx="0" cy="0" r="1" gradientUnits="userSpaceOnUse" gradientTransform="translate(256 370) rotate(90) scale(36 114)">
      <stop stop-color="#3AF0FF"/>
      <stop offset="1" stop-color="#133D67"/>
    </radialGradient>
  </defs>
</svg>
